# Created using SwiftConverter

# Vertex Array
v -11.113 4.962 0.000
v 0.000 4.962 0.794
v 0.000 4.962 0.000
v -11.113 4.962 0.794
v 0.000 0.000 0.000
v -11.113 0.000 0.000
v -11.113 4.962 -11.907
v 0.000 4.962 -11.113
v 0.000 4.962 -11.907
v -11.113 4.962 -11.113
v -11.113 0.000 -11.113
v 0.000 0.000 -11.113
v -4.181 9.725 -4.762
v -4.181 9.725 -6.350
v -3.968 9.725 -5.556
v -4.762 9.725 -4.181
v -4.762 9.725 -6.931
v -5.556 9.725 -3.968
v -5.556 9.725 -7.144
v -6.350 9.725 -4.181
v -6.350 9.725 -6.931
v -6.931 9.725 -4.762
v -6.931 9.725 -6.350
v -7.144 9.725 -5.556
v -6.931 7.741 -6.350
v -7.144 8.138 -5.556
v -6.931 7.741 -4.762
v -6.350 7.450 -4.181
v -5.556 7.344 -3.968
v -4.762 7.450 -4.181
v -4.181 7.741 -4.762
v -3.968 8.138 -5.556
v -4.181 7.741 -6.350
v -11.113 8.138 -5.556
v 0.000 8.138 -5.556
v -4.762 7.450 -6.931
v -5.556 7.344 -7.144
v -6.350 7.450 -6.931

# Normal Array
vn 0.000 -1.000 0.000
vn -0.000 -1.000 0.000
vn 0.000 -0.000 1.000
vn 0.000 -0.000 1.000
vn 0.000 -1.000 0.000
vn -0.000 -1.000 0.000
vn 0.000 -0.000 -1.000
vn 0.000 0.000 -1.000
vn 0.000 1.000 0.000
vn 0.000 1.000 -0.000
vn 0.000 1.000 0.000
vn 0.000 1.000 -0.000
vn 0.000 1.000 0.000
vn 0.000 1.000 -0.000
vn 0.000 1.000 0.000
vn 0.000 1.000 -0.000
vn 0.000 1.000 0.000
vn 0.000 1.000 -0.000
vn -0.966 0.000 -0.259
vn -0.966 0.000 -0.259
vn -0.966 0.000 0.259
vn -0.966 0.000 0.259
vn -0.707 0.000 0.707
vn -0.707 0.000 0.707
vn -0.259 0.000 0.966
vn -0.259 0.000 0.966
vn 0.259 0.000 0.966
vn 0.259 -0.000 0.966
vn 0.707 0.000 0.707
vn 0.707 0.000 0.707
vn 0.966 0.000 0.259
vn 0.966 0.000 0.259
vn 0.966 0.000 -0.259
vn 0.966 0.000 -0.259
vn -1.000 0.000 0.000
vn -1.000 0.000 -0.000
vn -1.000 0.000 0.000
vn -1.000 0.000 0.000
vn -1.000 0.000 0.000
vn 1.000 0.000 0.000
vn 1.000 0.000 0.000
vn 1.000 0.000 0.000
vn 1.000 0.000 0.000
vn 1.000 0.000 0.000
vn 0.707 0.000 -0.707
vn 0.707 0.000 -0.707
vn 0.000 -1.000 -0.000
vn -0.000 -1.000 -0.000
vn 0.259 0.000 -0.966
vn 0.259 0.000 -0.966
vn 0.000 0.894 -0.447
vn -0.000 0.894 -0.447
vn -0.000 0.894 -0.447
vn 0.000 0.894 -0.447
vn -0.000 0.894 -0.447
vn 0.000 0.894 -0.447
vn 0.000 0.894 -0.447
vn 0.000 0.894 -0.447
vn 0.000 0.894 -0.447
vn -0.000 0.894 0.447
vn -0.000 0.894 0.447
vn -0.000 0.894 0.447
vn 0.000 0.894 0.447
vn -0.000 0.894 0.447
vn 0.000 0.894 0.447
vn 0.000 0.894 0.447
vn 0.000 0.894 0.447
vn 0.000 0.894 0.447
vn -0.259 -0.000 -0.966
vn -0.259 0.000 -0.966
vn -0.707 -0.000 -0.707
vn -0.707 0.000 -0.707

# Facets
f 1//1 3//1 2//1
f 2//2 4//2 1//2
f 1//3 6//3 5//3
f 5//4 3//4 1//4
f 7//5 9//5 8//5
f 8//6 10//6 7//6
f 8//7 12//7 11//7
f 11//8 10//8 8//8
f 13//9 15//9 14//9
f 14//10 16//10 13//10
f 14//11 17//11 16//11
f 17//12 18//12 16//12
f 17//13 19//13 18//13
f 19//14 20//14 18//14
f 19//15 21//15 20//15
f 21//16 22//16 20//16
f 21//17 23//17 22//17
f 23//18 24//18 22//18
f 25//19 26//19 24//19
f 24//20 23//20 25//20
f 26//21 27//21 22//21
f 22//22 24//22 26//22
f 27//23 28//23 20//23
f 20//24 22//24 27//24
f 28//25 29//25 18//25
f 18//26 20//26 28//26
f 18//27 29//27 30//27
f 30//28 16//28 18//28
f 13//29 16//29 30//29
f 30//30 31//30 13//30
f 15//31 13//31 31//31
f 31//32 32//32 15//32
f 14//33 15//33 32//33
f 32//34 33//34 14//34
f 11//35 6//35 1//35
f 1//36 34//36 11//36
f 34//37 10//37 11//37
f 34//38 7//38 10//38
f 34//39 1//39 4//39
f 9//40 35//40 8//40
f 35//41 2//41 3//41
f 3//42 5//42 35//42
f 5//43 12//43 35//43
f 12//44 8//44 35//44
f 33//45 36//45 17//45
f 17//46 14//46 33//46
f 11//47 12//47 5//47
f 5//48 6//48 11//48
f 36//49 37//49 19//49
f 19//50 17//50 36//50
f 32//51 35//51 9//51
f 9//52 33//52 32//52
f 9//53 36//53 33//53
f 9//54 7//54 36//54
f 7//55 37//55 36//55
f 7//56 38//56 37//56
f 7//57 25//57 38//57
f 7//58 26//58 25//58
f 7//59 34//59 26//59
f 4//60 2//60 35//60
f 35//61 30//61 4//61
f 35//62 31//62 30//62
f 35//63 32//63 31//63
f 30//64 29//64 4//64
f 29//65 28//65 4//65
f 28//66 27//66 4//66
f 27//67 26//67 4//67
f 26//68 34//68 4//68
f 19//69 37//69 38//69
f 38//70 21//70 19//70
f 21//71 38//71 25//71
f 25//72 23//72 21//72

# Thankyou for using SwiftConverter

